<?xml version="1.0" standalone="no"?>
<!DOCTYPE svg PUBLIC "-//W3C//DTD SVG 20010904//EN"
 "http://www.w3.org/TR/2001/REC-SVG-20010904/DTD/svg10.dtd">
<svg version="1.0" xmlns="http://www.w3.org/2000/svg"
 width="460.000000pt" height="460.000000pt" viewBox="0 0 460.000000 460.000000"
 preserveAspectRatio="xMidYMid meet">
<metadata>
Created by potrace 1.14, written by Peter Selinger 2001-2017
</metadata>
<g transform="translate(0.000000,460.000000) scale(0.100000,-0.100000)"
fill="#000000" stroke="none">
<path d="M2262 3502 c-17 -17 -18 -49 -18 -525 1 -447 -1 -506 -14 -501 -134
58 -280 41 -366 -42 -171 -167 15 -406 280 -360 91 15 184 93 204 170 5 17 8
181 8 364 -1 182 0 332 2 332 9 0 72 -37 109 -63 55 -39 117 -129 133 -194 12
-47 12 -54 -3 -71 -23 -25 -21 -58 3 -82 38 -38 85 -6 134 90 62 119 83 251
56 351 -29 106 -83 173 -215 264 -121 83 -194 160 -217 227 -19 57 -61 75 -96
40z"/>
<path d="M1730 1952 c-50 -15 -66 -76 -30 -112 40 -40 120 -12 120 43 0 46
-47 82 -90 69z"/>
<path d="M2896 1911 c-1 -3 -2 -141 -2 -306 l1 -300 55 0 55 0 3 308 2 307
-55 -1 c-31 -1 -57 -4 -59 -8z"/>
<path d="M4 1881 c-2 -2 -4 -133 -4 -291 l0 -286 48 2 c26 1 52 2 57 3 7 1 11
63 10 181 0 99 1 180 2 180 3 0 24 -49 65 -150 97 -236 84 -215 128 -215 21 0
43 5 48 10 5 6 40 84 77 175 37 91 70 168 74 172 3 4 5 -73 4 -172 -1 -130 1
-179 10 -182 10 -4 75 -3 100 1 4 0 6 130 5 288 l-3 287 -58 1 c-32 0 -62 -2
-66 -5 -4 -3 -31 -61 -60 -130 -49 -116 -63 -148 -110 -254 l-17 -40 -22 55
c-13 30 -27 63 -32 74 -6 11 -37 83 -69 160 l-59 139 -62 1 c-34 0 -64 -2 -66
-4z"/>
<path d="M3263 1765 c-123 -28 -183 -109 -180 -240 4 -127 78 -209 201 -222
82 -8 142 12 197 67 89 89 92 239 6 328 -61 64 -137 86 -224 67z m106 -110
c34 -17 61 -70 61 -120 0 -83 -57 -141 -131 -132 -51 6 -86 39 -97 91 -25 123
68 213 167 161z"/>
<path d="M724 1595 c2 -178 9 -207 53 -247 28 -26 88 -48 130 -48 40 0 122 35
124 53 1 7 4 -1 8 -17 6 -27 10 -29 54 -31 26 0 51 2 57 5 6 4 9 90 7 231 l-2
224 -45 1 c-25 0 -50 -2 -57 -4 -9 -3 -12 -43 -12 -140 1 -76 -4 -149 -9 -163
-21 -53 -86 -74 -142 -46 -42 21 -51 55 -51 194 -1 70 -3 135 -5 144 -3 11
-17 15 -58 15 l-55 -1 3 -170z"/>
<path d="M1314 1745 c-51 -30 -79 -83 -70 -130 11 -58 40 -82 129 -110 104
-32 127 -44 127 -66 0 -55 -84 -67 -132 -19 -25 26 -37 30 -84 30 -61 0 -64
-5 -32 -61 61 -109 275 -120 338 -17 53 87 8 161 -123 199 -90 26 -122 50
-107 79 22 42 106 36 125 -8 8 -19 17 -22 68 -22 56 0 58 1 52 23 -26 85 -87
127 -185 127 -51 0 -74 -5 -106 -25z"/>
<path d="M1702 1762 c-14 -4 -18 -451 -4 -453 35 -6 102 -2 104 6 4 30 3 445
-2 446 -16 4 -88 5 -98 1z"/>
<path d="M2005 1752 c-87 -42 -128 -111 -129 -217 0 -140 88 -234 220 -235 96
0 157 34 199 111 l26 49 -61 0 c-56 0 -65 -3 -90 -30 -61 -66 -161 -25 -175
72 -8 53 7 118 34 142 45 41 125 34 151 -13 9 -18 20 -21 76 -21 l65 0 -28 51
c-40 74 -85 101 -176 106 -56 3 -81 0 -112 -15z"/>
<path d="M2485 1746 c-82 -38 -120 -95 -128 -196 -9 -102 62 -215 149 -239
201 -56 366 105 307 301 -39 132 -196 196 -328 134z m177 -102 c45 -41 58
-128 27 -187 -15 -26 -69 -57 -102 -57 -113 0 -157 168 -64 246 26 22 38 25
74 21 24 -2 53 -13 65 -23z"/>
<path d="M3723 1759 c-40 -12 -106 -86 -121 -137 -27 -89 -7 -200 46 -256 75
-80 213 -88 281 -15 l21 23 0 -47 c0 -69 -22 -115 -64 -132 -58 -24 -139 -4
-152 37 -4 15 -17 18 -66 18 l-60 0 7 -27 c20 -83 96 -134 207 -139 109 -5
179 30 220 109 21 40 22 55 22 307 l1 265 -55 0 -55 -1 -5 -34 c-4 -24 -7 -30
-12 -19 -18 45 -136 71 -215 48z m185 -121 c51 -49 53 -149 3 -199 -36 -35
-73 -45 -119 -30 -100 30 -112 198 -18 246 40 20 103 12 134 -17z"/>
<path d="M4120 1760 c-7 -4 -6 -16 4 -36 8 -16 44 -103 81 -194 36 -91 70
-173 76 -182 14 -26 13 -30 -40 -148 l-49 -110 63 0 62 0 122 293 c68 160 129
306 136 322 25 56 24 58 -32 60 -29 1 -56 -1 -61 -4 -6 -3 -33 -69 -62 -146
-28 -77 -55 -146 -59 -152 -4 -7 -30 51 -60 135 -29 81 -57 151 -62 157 -11
11 -103 15 -119 5z"/>
</g>
</svg>
